# xmcd
#
# Track frame offsets:
#	150
#	13295
#	30583
#	46516
#	62711
#	79252
#	94016
#	106726
#	123014
#	137640
#
# Disc length: 1999 seconds
# Revision: 0
# Processed by: cddbd v1.5.2PL0 Copyright (c) Steve Scherf et al.
# Submitted via: dBpowerAMP V12.0
#
DISCID=7207cd0a
DTITLE=Karen Jonas - Butter
DYEAR=2018
DGENRE=Country
TTITLE0=Yellow Brick Road
TTITLE1=My Sweet Arsonist
TTITLE2=Butter
TTITLE3=Gospel of the Road
TTITLE4=Kamikaze Love
TTITLE5=Oh Icarus
TTITLE6=Mama's First Rodeo
TTITLE7=Dance with Me
TTITLE8=Mr.Wonka
TTITLE9=The Circus
EXTD=
EXTT0=
EXTT1=
EXTT2=
EXTT3=
EXTT4=
EXTT5=
EXTT6=
EXTT7=
EXTT8=
EXTT9=
PLAYORDER=
